Coordinates
version=1
nRows=4
nColumns=63
inDegrees=yes

Units are S.I. units (second, meters, Newtons, ...)
If the header above contains a line with 'inDegrees', this indicates whether rotational values are in degrees (yes) or radians (no).

endheader
time	pelvis_tilt	pelvis_list	pelvis_rotation	pelvis_tx	pelvis_ty	pelvis_tz	hip_flexion_r	hip_adduction_r	hip_rotation_r	knee_angle_r	knee_angle_r_beta	ankle_angle_r	subtalar_angle_r	mtp_angle_r	hip_flexion_l	hip_adduction_l	hip_rotation_l	knee_angle_l	knee_angle_l_beta	ankle_angle_l	subtalar_angle_l	mtp_angle_l	L5_S1_Flex_Ext	L5_S1_Lat_Bending	L5_S1_axial_rotation	L4_L5_Flex_Ext	L4_L5_Lat_Bending	L4_L5_axial_rotation	L3_L4_Flex_Ext	L3_L4_Lat_Bending	L3_L4_axial_rotation	L2_L3_Flex_Ext	L2_L3_Lat_Bending	L2_L3_axial_rotation	L1_L2_Flex_Ext	L1_L2_Lat_Bending	L1_L2_axial_rotation	L1_T12_Flex_Ext	L1_T12_Lat_Bending	L1_T12_axial_rotation	Abs_r3	Abs_r2	Abs_r1	Abs_t1	Abs_t2	neck_flexion	neck_bending	neck_rotation	arm_flex_r	arm_add_r	arm_rot_r	elbow_flex_r	pro_sup_r	wrist_flex_r	wrist_dev_r	arm_flex_l	arm_add_l	arm_rot_l	elbow_flex_l	pro_sup_l	wrist_flex_l	wrist_dev_l
      0.00000000	      0.93106476	      6.45083063	    -88.27899767	      0.83283550	      0.92273453	      0.05209827	     31.32360257	      0.18543522	     -1.74416330	     41.87106597	      0.73078796	      2.31603644	    -11.43946793	      0.00000000	     28.93530213	      2.67099582	      2.53522304	     37.27304410	      0.65053734	      6.65597859	     -9.45873769	      0.00000000	     -0.23225361	     -0.43142953	     -0.22646379	     -0.43131818	     -0.57380127	     -0.24061778	     -0.38156946	     -1.04897775	     -0.24061778	     -0.26544265	     -1.04897775	     -0.19815582	     -0.21567070	     -0.87977109	     -0.18400183	     -0.13270971	     -0.66828434	     -0.16984784	     -1.65896432	     -4.88041709	     -1.25952366	      0.00000000	      0.00000000	      0.00000000	      0.00000000	      0.00000001	     11.76854860	     -2.79011023	     31.93292977	      9.69941402	     62.15968885	      0.00000000	      3.61959391	     10.99468320	     -9.31098746	     35.25022126	     13.03479855	     55.11901055	      0.00000000	      3.61959391
      0.01666670	      0.37650923	      5.43420011	    -88.59348125	      0.83159379	      0.92383830	      0.05170269	     30.49905949	      0.06492998	     -3.46355224	     42.29903809	      0.73825749	      2.19723438	    -10.44684729	      0.00000000	     30.62334300	      0.83377849	      0.98473380	     42.01807303	      0.73335372	      2.92794472	     -6.72083434	      0.00000000	     -0.24627681	     -0.37772195	     -0.19617997	     -0.45736066	     -0.50237020	     -0.20844122	     -0.40460817	     -0.91839315	     -0.20844122	     -0.28146976	     -0.91839315	     -0.17165747	     -0.22869264	     -0.77025060	     -0.15939623	     -0.14072257	     -0.58509130	     -0.14713498	     -1.75913060	     -4.27286626	     -1.09109414	      0.00000000	      0.00000000	      0.00000000	      0.00000000	      0.00000001	     11.76064349	     -3.44787970	     32.96944457	      8.88876051	     62.22224356	      0.00000000	      3.70730947	     11.99690188	     -9.63036258	     34.75163526	     11.84235476	     55.11931435	      0.00000000	      3.70730947
      0.03333330	      0.94768882	      5.14755330	    -89.42204151	      0.83096718	      0.92462499	      0.05265537	     30.04703822	     -0.67378364	     -3.75356791	     41.87486716	      0.73085431	      0.81707592	     -9.19298750	      0.00000000	     30.35792766	      1.14204504	      0.19277152	     42.50767641	      0.74189891	      0.06593627	     -7.90425324	      0.00000000	     -0.21636597	     -0.40427645	     -0.10081215	     -0.40181324	     -0.53768768	     -0.10711291	     -0.35546765	     -0.98295776	     -0.10711291	     -0.24728467	     -0.98295776	     -0.08821063	     -0.20091744	     -0.82440054	     -0.08190987	     -0.12363152	     -0.62622422	     -0.07560911	     -1.54548049	     -4.57325605	     -0.56068692	      0.00000000	      0.00000000	      0.00000000	      0.00000000	      0.00000001	     11.94067325	     -3.72743462	     33.65699231	      9.02210432	     62.21744678	      0.00000000	      3.76024154	     12.10682040	     -9.97956864	     33.55329382	     11.67587558	     54.74651621	      0.00000000	      3.76024154
      0.05000000	      0.70025688	      5.18962765	    -89.87715631	      0.83093210	      0.92571645	      0.05230488	     29.70451621	     -0.29489475	     -3.60179268	     41.11063342	      0.71751591	     -0.71630381	    -10.07129443	      0.00000000	     30.17947798	      0.81159109	      0.46632122	     42.27883224	      0.73790483	     -1.39514738	     -8.53942819	      0.00000000	     -0.21982126	     -0.36205998	     -0.08011841	     -0.40823005	     -0.48153977	     -0.08512581	     -0.36114434	     -0.88031263	     -0.08512581	     -0.25123371	     -0.88031263	     -0.07010361	     -0.20412602	     -0.73831271	     -0.06509621	     -0.12560587	     -0.56083090	     -0.06008881	     -1.57016124	     -4.09569487	     -0.44559455	      0.00000000	      0.00000000	      0.00000000	      0.00000000	      0.00000001	     12.11824860	     -4.03230886	     33.23790568	      9.71245677	     61.27412854	      0.00000000	      3.95915617	     11.80845634	     -9.59752257	     26.31892887	     12.29783761	     52.23762353	      0.00000000	      3.95915617
